<svg width="252" height="54" viewBox="0 0 252 54" fill="none" xmlns="http://www.w3.org/2000/svg">
<rect width="252" height="54" fill="#1A1A1A"/>
<path d="M179.2 19.807H174.366L174.281 19.8214C174.072 19.8566 173.92 20.0388 173.923 20.2504L173.394 23.1106H179.243C181.059 23.1821 181.975 24.269 181.631 26.2998C181.325 28.1489 179.653 29.4547 177.784 29.303H175.968L176.597 25.7564H173.222C173.037 25.7876 172.889 25.9296 172.85 26.1139L172.293 29.3745H168.903C168.719 29.4033 168.575 29.5479 168.546 29.7321L168.017 32.5923H171.692L171.063 36.1533H174.452C174.634 36.1112 174.775 35.9654 174.81 35.7814L175.382 32.5923H177.927C181.486 32.7366 184.573 30.1565 185.064 26.6287C185.822 22.5815 183.49 19.807 179.2 19.807Z" fill="#FF4E00"/>
<path d="M192.772 19.807L192.758 19.8214H189.368C189.19 19.8557 189.052 19.999 189.025 20.1789L186.165 36.1533H195.904C196.086 36.1112 196.227 35.9654 196.261 35.7814L196.834 32.5923H190.484L192.772 19.807Z" fill="#FF4E00"/>
<path d="M221.346 26.2283C219.873 25.7421 218.886 25.4131 219.072 24.3119C219.324 23.3144 220.01 22.7834 221.303 22.796C222.77 22.8 224.197 23.2708 225.379 24.1403L227.61 21.5661C225.944 20.2169 223.861 19.4889 221.718 19.5068C218.757 19.3923 216.026 20.7223 215.468 23.983C214.91 27.2437 217.155 28.7453 219.63 29.4603C221.346 29.9323 222.533 30.4614 222.347 31.534C222.161 32.6066 220.974 33.1358 219.63 33.1358C218.078 33.0833 216.599 32.4683 215.468 31.4053L213.165 34.051C214.794 35.6288 216.976 36.5065 219.243 36.4965C222.261 36.4965 225.307 35.5097 226.051 31.9487C226.823 28.0445 223.462 26.8718 221.346 26.2283Z" fill="#FF4E00"/>
<path d="M210.033 19.807C209.811 19.8031 209.618 19.9601 209.576 20.1789L207.688 30.7332C207.505 32.1228 206.3 33.1485 204.899 33.1071C204.739 33.1164 204.578 33.1068 204.421 33.0785C203.309 32.8791 202.569 31.8163 202.768 30.7045L204.713 19.807H201.424C201.201 19.8031 201.008 19.9601 200.966 20.1789L199.136 30.4043C199.026 30.9093 198.995 31.4284 199.043 31.943C199.304 34.6951 201.747 36.7145 204.499 36.4536C208.16 36.4536 210.648 34.7375 211.335 31.0049L213.337 19.807L210.033 19.807Z" fill="#FF4E00"/>
<path d="M85.9162 20.3405C84.9065 19.7971 83.4063 19.5331 81.3272 19.5305C78.485 19.5305 75.8452 20.1095 74.8381 20.4751C74.7056 20.5102 74.5882 20.5863 74.5035 20.692C74.4188 20.7977 74.3714 20.9274 74.3683 21.0617V21.1328L74.6486 22.5167V22.5421C74.6816 22.6595 74.753 22.7631 74.8519 22.8369C74.9509 22.9108 75.0719 22.9508 75.1963 22.9509C75.256 22.948 75.3152 22.9386 75.3728 22.923L75.8452 22.8138C77.0833 22.5116 78.96 22.052 81.0365 22.052C82.3057 22.052 83.1571 22.1612 83.7281 22.3973C84.6573 22.7401 84.6625 23.3267 84.6729 24.2967V25.7492H84.1097C82.4305 25.7446 80.7533 25.8634 79.0923 26.1047C76.071 26.5592 73.5714 27.2677 73.587 31.3406C73.587 36.5106 78.4901 36.5207 80.8548 36.5233C82.2122 36.5131 83.5652 36.3702 84.8935 36.0967C87.092 35.5888 87.6553 34.9159 87.6267 32.7779V24.1774C87.6267 22.8671 87.6267 21.2344 85.9032 20.3405H85.9162ZM84.6963 33.6209C83.4694 34.0024 82.1888 34.1926 80.9015 34.1846C78.7341 34.1668 76.6161 33.9307 76.6135 31.2213C76.6291 29.0705 77.8023 28.8141 79.287 28.489L79.3882 28.4662C80.7094 28.1919 84.0266 28.1386 84.7093 28.131L84.6963 33.6209ZM112.142 24.1774V32.7753C112.174 34.9134 111.61 35.5964 109.412 36.0941C108.083 36.3675 106.73 36.5104 105.373 36.5207C103.019 36.5207 98.1053 36.5207 98.1053 31.3381C98.0871 27.2753 100.589 26.5567 103.611 26.1021C105.272 25.8608 106.949 25.7419 108.628 25.7466H109.189V24.2967C109.189 23.3267 109.176 22.7401 108.246 22.3973C107.675 22.1612 106.824 22.052 105.555 22.052C103.465 22.052 101.591 22.5116 100.363 22.8138L99.891 22.923C99.8334 22.9386 99.7742 22.948 99.7145 22.9509C99.59 22.9512 99.4688 22.9113 99.3698 22.8374C99.2708 22.7635 99.1994 22.6597 99.1669 22.5421V22.5167L98.8865 21.1328V21.0617C98.8887 20.9276 98.9352 20.7979 99.0189 20.6917C99.1026 20.5855 99.2192 20.5087 99.3511 20.4726C100.35 20.1069 102.985 19.5305 105.84 19.528C107.917 19.528 109.42 19.7946 110.429 20.338C112.158 21.2318 112.153 22.8773 112.15 24.1748L112.142 24.1774ZM109.215 28.1285C108.532 28.1285 105.215 28.1894 103.893 28.4637L103.792 28.4865C102.305 28.8115 101.134 29.068 101.119 31.2188C101.119 33.9231 103.239 34.1643 105.404 34.1821C106.696 34.1922 107.981 34.0029 109.212 33.6209L109.215 28.1285ZM156.533 19.5305C149.706 19.5305 149.127 23.9285 149.12 28.0421C149.112 32.1557 149.706 36.5131 156.533 36.5207C163.354 36.5207 163.935 32.1507 163.946 28.0421C163.946 23.7406 163.359 19.5407 156.533 19.5305ZM156.533 34.1211C152.393 34.1034 152.182 32.0237 152.156 28.0421C152.182 24.0403 152.39 21.9479 156.533 21.9327C160.675 21.9174 160.88 24.0403 160.909 28.0269C160.88 32.011 160.673 34.0907 156.533 34.1211ZM144.292 35.9164L144.113 35.9596C142.628 36.3535 141.095 36.5424 139.557 36.5207C133.24 36.5207 131.999 33.3949 131.994 28.0117C131.994 21.8387 134 19.5407 139.373 19.5305C140.767 19.5174 142.158 19.6726 143.513 19.9927V15.0208C143.513 14.8024 143.606 14.5129 144.136 14.419L145.813 14H145.904C146.29 14 146.423 14.3453 146.423 14.6297V33.3136C146.449 34.4944 146.306 35.505 144.3 35.9164H144.292ZM143.521 22.3872C142.247 22.0754 140.94 21.9126 139.627 21.9022C136.393 21.9327 135.036 22.7909 135.002 28.0421C135.041 33.8088 136.796 34.1211 139.656 34.1516C140.957 34.1444 142.251 33.9737 143.508 33.6438L143.521 22.3872ZM128.44 36.1322H126.901C126.808 36.1339 126.715 36.1173 126.628 36.0832C126.542 36.0491 126.463 35.9984 126.397 35.9339C126.331 35.8695 126.279 35.7927 126.244 35.7081C126.208 35.6235 126.191 35.5328 126.192 35.4415V24.3577C126.167 22.4811 125.593 21.9606 123.529 21.9327C121.686 21.9753 119.855 22.237 118.076 22.7122V35.4542C118.081 35.5437 118.067 35.6331 118.035 35.7171C118.004 35.8011 117.955 35.8778 117.891 35.9425C117.828 36.0072 117.752 36.0586 117.668 36.0934C117.583 36.1282 117.493 36.1458 117.401 36.1449H115.87C115.776 36.147 115.684 36.1306 115.597 36.0966C115.51 36.0626 115.432 36.0118 115.366 35.9473C115.3 35.8827 115.248 35.8057 115.213 35.721C115.178 35.6363 115.162 35.5455 115.164 35.4542V23.0118C115.14 21.8616 115.249 21.0642 116.924 20.5361C118.525 19.9952 121.596 19.5356 123.618 19.5204C127.477 19.5204 129.126 20.889 129.131 24.091V35.4542C129.132 35.5454 129.115 35.636 129.081 35.7206C129.046 35.8052 128.994 35.882 128.928 35.9465C128.862 36.011 128.783 36.0618 128.697 36.0959C128.611 36.13 128.518 36.1467 128.425 36.1449L128.44 36.1322ZM94.4221 36.4446C95.2838 36.4268 95.9223 36.2617 96.1715 35.9875C96.2128 35.945 96.2447 35.8947 96.2653 35.8397C96.2858 35.7846 96.2945 35.726 96.2909 35.6675C96.2909 35.5761 96.2909 35.5761 96.0469 34.4919V34.4639C96.0373 34.3567 95.9889 34.2564 95.9104 34.181C95.8319 34.1055 95.7284 34.06 95.6187 34.0526C95.6031 34.0526 95.5875 34.0526 95.5953 34.0526C95.6031 34.0526 95.3799 34.0526 95.1644 34.0526C94.5493 34.0323 94.0405 33.9459 94.0301 33.0648V14.6323C94.0369 14.5553 94.0278 14.4777 94.0036 14.4042C93.9793 14.3306 93.9403 14.2625 93.8888 14.2039C93.8373 14.1453 93.7744 14.0972 93.7038 14.0627C93.6331 14.0281 93.5561 14.0077 93.4773 14.0025H93.3708L91.6889 14.4241C91.5324 14.4307 91.3848 14.4972 91.2779 14.6093C91.1711 14.7214 91.1136 14.8701 91.1178 15.0233V33.1054C91.1178 35.246 92.2963 36.4268 94.4273 36.4319L94.4221 36.4446ZM70.6799 36.1449H58.6362C58.543 36.1467 58.4504 36.13 58.364 36.0959C58.2775 36.0618 58.199 36.011 58.1331 35.9465C58.0672 35.882 58.0152 35.8052 57.9804 35.7206C57.9455 35.636 57.9285 35.5454 57.9302 35.4542V34.0043C57.9264 33.8591 57.9537 33.7146 58.0105 33.5803C58.0673 33.446 58.1522 33.3249 58.2599 33.2248L67.8455 22.3212H58.4494C58.3561 22.3233 58.2633 22.3068 58.1767 22.2728C58.0901 22.2389 58.0114 22.1881 57.9454 22.1235C57.8794 22.059 57.8275 21.982 57.7927 21.8972C57.758 21.8125 57.7412 21.7218 57.7433 21.6305V20.6148C57.7412 20.5235 57.758 20.4328 57.7927 20.348C57.8275 20.2633 57.8794 20.1863 57.9454 20.1218C58.0114 20.0572 58.0901 20.0064 58.1767 19.9724C58.2633 19.9385 58.3561 19.922 58.4494 19.9241H70.615C70.7083 19.922 70.8011 19.9385 70.8877 19.9724C70.9743 20.0064 71.053 20.0572 71.119 20.1218C71.185 20.1863 71.2369 20.2633 71.2716 20.348C71.3064 20.4328 71.3232 20.5235 71.321 20.6148V22.0825C71.3222 22.2172 71.2959 22.3508 71.2438 22.4754C71.1916 22.6001 71.1147 22.7134 71.0174 22.8087L61.4136 33.7275H70.6825C70.7758 33.7258 70.8685 33.7425 70.9551 33.7766C71.0417 33.8106 71.1204 33.8614 71.1866 33.9259C71.2527 33.9903 71.3049 34.0671 71.34 34.1517C71.3751 34.2363 71.3925 34.3269 71.3911 34.4182V35.4339C71.3925 35.5252 71.3751 35.6159 71.34 35.7005C71.3049 35.785 71.2527 35.8618 71.1866 35.9263C71.1204 35.9907 71.0417 36.0415 70.9551 36.0756C70.8685 36.1097 70.7758 36.1263 70.6825 36.1246" fill="white"/>
<path d="M48.4119 24.2261C46.6129 21.9565 44.08 19.7834 40.7897 17.8034H40.766C37.452 15.8718 34.3274 14.737 31.5105 14.2782C29.7588 13.9885 28.9066 14.3265 28.5279 14.5438C28.1491 14.7611 27.439 15.3406 26.7998 17.0308C25.782 19.7592 25.1902 23.0913 25.1665 26.9787V27.0029C25.1902 30.9145 25.782 34.2224 26.7998 36.9508C27.439 38.641 28.1491 39.2205 28.5279 39.4378C28.9066 39.6551 29.7588 39.9932 31.5105 39.7034C34.3274 39.2447 37.452 38.1098 40.766 36.1782H40.7897C44.08 34.1982 46.6129 32.0251 48.4119 29.7555C49.5481 28.355 49.6665 27.4375 49.6665 26.9787C49.6665 26.5441 49.5481 25.6266 48.4119 24.2261Z" fill="#FF4E00"/>
</svg>
